<mxfile host="app.diagrams.net" modified="2024-07-16T13:37:29.010Z" agent="Mozilla/5.0 (Windows NT 10.0; Win64; x64) AppleWebKit/537.36 (KHTML, like Gecko) Chrome/126.0.0.0 Safari/537.36 Edg/126.0.0.0" etag="i6K7saUGE3KCnvQel-wx" version="24.6.5" type="device">
  <diagram name="Page-1" id="71xilaEh7hcBiJlzb4P3">
    <mxGraphModel dx="1386" dy="793" grid="1" gridSize="10" guides="1" tooltips="1" connect="1" arrows="1" fold="1" page="1" pageScale="1" pageWidth="827" pageHeight="1169" background="#ffffff" math="0" shadow="0">
      <root>
        <mxCell id="0" />
        <mxCell id="1" parent="0" />
        <mxCell id="DaRkGXLEjVwSo0zpprm4-1" value="" style="sketch=0;points=[[0,0,0],[0.25,0,0],[0.5,0,0],[0.75,0,0],[1,0,0],[0,1,0],[0.25,1,0],[0.5,1,0],[0.75,1,0],[1,1,0],[0,0.25,0],[0,0.5,0],[0,0.75,0],[1,0.25,0],[1,0.5,0],[1,0.75,0]];outlineConnect=0;fontColor=#232F3E;fillColor=#C925D1;strokeColor=#ffffff;dashed=0;verticalLabelPosition=bottom;verticalAlign=top;align=center;html=1;fontSize=12;fontStyle=0;aspect=fixed;shape=mxgraph.aws4.resourceIcon;resIcon=mxgraph.aws4.redshift;" vertex="1" parent="1">
          <mxGeometry x="410" y="372.5" width="78" height="78" as="geometry" />
        </mxCell>
        <mxCell id="DaRkGXLEjVwSo0zpprm4-2" value="" style="sketch=0;points=[[0,0,0],[0.25,0,0],[0.5,0,0],[0.75,0,0],[1,0,0],[0,1,0],[0.25,1,0],[0.5,1,0],[0.75,1,0],[1,1,0],[0,0.25,0],[0,0.5,0],[0,0.75,0],[1,0.25,0],[1,0.5,0],[1,0.75,0]];outlineConnect=0;fontColor=#232F3E;fillColor=#7AA116;strokeColor=#ffffff;dashed=0;verticalLabelPosition=bottom;verticalAlign=top;align=center;html=1;fontSize=12;fontStyle=0;aspect=fixed;shape=mxgraph.aws4.resourceIcon;resIcon=mxgraph.aws4.s3;" vertex="1" parent="1">
          <mxGeometry x="70" y="365" width="78" height="78" as="geometry" />
        </mxCell>
        <mxCell id="DaRkGXLEjVwSo0zpprm4-3" value="" style="outlineConnect=0;dashed=0;verticalLabelPosition=bottom;verticalAlign=top;align=center;html=1;shape=mxgraph.aws3.ec2;fillColor=#F58534;gradientColor=none;" vertex="1" parent="1">
          <mxGeometry x="603" y="560" width="76.5" height="93" as="geometry" />
        </mxCell>
        <mxCell id="DaRkGXLEjVwSo0zpprm4-4" value="" style="image;aspect=fixed;html=1;points=[];align=center;fontSize=12;image=img/lib/azure2/other/Grafana.svg;" vertex="1" parent="1">
          <mxGeometry x="606" y="380.2" width="68" height="52.800000000000004" as="geometry" />
        </mxCell>
        <mxCell id="DaRkGXLEjVwSo0zpprm4-6" value="" style="outlineConnect=0;dashed=0;verticalLabelPosition=bottom;verticalAlign=top;align=center;html=1;shape=mxgraph.aws3.lambda_function;fillColor=#5294CF;gradientColor=none;" vertex="1" parent="1">
          <mxGeometry x="250" y="372.5" width="60" height="63" as="geometry" />
        </mxCell>
        <mxCell id="DaRkGXLEjVwSo0zpprm4-7" value="" style="sketch=0;points=[[0,0,0],[0.25,0,0],[0.5,0,0],[0.75,0,0],[1,0,0],[0,1,0],[0.25,1,0],[0.5,1,0],[0.75,1,0],[1,1,0],[0,0.25,0],[0,0.5,0],[0,0.75,0],[1,0.25,0],[1,0.5,0],[1,0.75,0]];points=[[0,0,0],[0.25,0,0],[0.5,0,0],[0.75,0,0],[1,0,0],[0,1,0],[0.25,1,0],[0.5,1,0],[0.75,1,0],[1,1,0],[0,0.25,0],[0,0.5,0],[0,0.75,0],[1,0.25,0],[1,0.5,0],[1,0.75,0]];outlineConnect=0;fontColor=#232F3E;fillColor=#E7157B;strokeColor=#ffffff;dashed=0;verticalLabelPosition=bottom;verticalAlign=top;align=center;html=1;fontSize=12;fontStyle=0;aspect=fixed;shape=mxgraph.aws4.resourceIcon;resIcon=mxgraph.aws4.cloudwatch_2;" vertex="1" parent="1">
          <mxGeometry x="410" y="180" width="78" height="78" as="geometry" />
        </mxCell>
        <mxCell id="DaRkGXLEjVwSo0zpprm4-8" value="" style="sketch=0;pointerEvents=1;shadow=0;dashed=0;html=1;strokeColor=none;fillColor=#505050;labelPosition=center;verticalLabelPosition=bottom;verticalAlign=top;outlineConnect=0;align=center;shape=mxgraph.office.users.csv_file;" vertex="1" parent="1">
          <mxGeometry x="78" y="200" width="82" height="60" as="geometry" />
        </mxCell>
        <mxCell id="DaRkGXLEjVwSo0zpprm4-9" value="Customer information as a CSV file" style="text;html=1;align=center;verticalAlign=middle;whiteSpace=wrap;rounded=0;" vertex="1" parent="1">
          <mxGeometry x="70" y="270" width="79" height="30" as="geometry" />
        </mxCell>
        <mxCell id="DaRkGXLEjVwSo0zpprm4-10" value="" style="edgeStyle=orthogonalEdgeStyle;html=1;endArrow=block;elbow=vertical;startArrow=none;endFill=1;strokeColor=#545B64;rounded=0;" edge="1" parent="1">
          <mxGeometry width="100" relative="1" as="geometry">
            <mxPoint x="641.35" y="557.5" as="sourcePoint" />
            <mxPoint x="640.6" y="497.5" as="targetPoint" />
          </mxGeometry>
        </mxCell>
        <mxCell id="DaRkGXLEjVwSo0zpprm4-11" value="" style="edgeStyle=orthogonalEdgeStyle;html=1;endArrow=block;elbow=vertical;startArrow=none;endFill=1;strokeColor=#545B64;rounded=0;" edge="1" parent="1">
          <mxGeometry width="100" relative="1" as="geometry">
            <mxPoint x="149" y="403.5" as="sourcePoint" />
            <mxPoint x="249" y="403.5" as="targetPoint" />
          </mxGeometry>
        </mxCell>
        <mxCell id="DaRkGXLEjVwSo0zpprm4-12" value="" style="edgeStyle=orthogonalEdgeStyle;html=1;endArrow=block;elbow=vertical;startArrow=none;endFill=1;strokeColor=#545B64;rounded=0;" edge="1" parent="1">
          <mxGeometry width="100" relative="1" as="geometry">
            <mxPoint x="109" y="310" as="sourcePoint" />
            <mxPoint x="108.5" y="365" as="targetPoint" />
          </mxGeometry>
        </mxCell>
        <mxCell id="DaRkGXLEjVwSo0zpprm4-13" value="S3 Bucket to store the csv files" style="text;html=1;align=center;verticalAlign=middle;whiteSpace=wrap;rounded=0;" vertex="1" parent="1">
          <mxGeometry x="70" y="460" width="79" height="30" as="geometry" />
        </mxCell>
        <mxCell id="DaRkGXLEjVwSo0zpprm4-14" value="ETL pipeline as a lambda function" style="text;html=1;align=center;verticalAlign=middle;whiteSpace=wrap;rounded=0;" vertex="1" parent="1">
          <mxGeometry x="240.5" y="450" width="79" height="30" as="geometry" />
        </mxCell>
        <mxCell id="DaRkGXLEjVwSo0zpprm4-15" value="EC2 instance to host Grafana" style="text;html=1;align=center;verticalAlign=middle;whiteSpace=wrap;rounded=0;" vertex="1" parent="1">
          <mxGeometry x="600.5" y="670" width="79" height="30" as="geometry" />
        </mxCell>
        <mxCell id="DaRkGXLEjVwSo0zpprm4-16" value="Grafana to create visualisation of the data" style="text;html=1;align=center;verticalAlign=middle;whiteSpace=wrap;rounded=0;" vertex="1" parent="1">
          <mxGeometry x="600" y="449.99999999999994" width="79" height="30" as="geometry" />
        </mxCell>
        <mxCell id="DaRkGXLEjVwSo0zpprm4-17" value="CloudWatch to gather EC2 and Lambda metrics" style="text;html=1;align=center;verticalAlign=middle;whiteSpace=wrap;rounded=0;" vertex="1" parent="1">
          <mxGeometry x="409" y="277" width="79" height="30" as="geometry" />
        </mxCell>
        <mxCell id="DaRkGXLEjVwSo0zpprm4-19" value="&lt;span style=&quot;color: rgb(0, 0, 0); font-family: Helvetica; font-size: 12px; font-style: normal; font-variant-ligatures: normal; font-variant-caps: normal; font-weight: 400; letter-spacing: normal; orphans: 2; text-align: center; text-indent: 0px; text-transform: none; widows: 2; word-spacing: 0px; -webkit-text-stroke-width: 0px; white-space: normal; background-color: rgb(251, 251, 251); text-decoration-thickness: initial; text-decoration-style: initial; text-decoration-color: initial; display: inline !important; float: none;&quot;&gt;Redshift to store the transformed data in a database&lt;/span&gt;" style="text;whiteSpace=wrap;html=1;" vertex="1" parent="1">
          <mxGeometry x="390" y="457.5" width="130" height="40" as="geometry" />
        </mxCell>
        <mxCell id="DaRkGXLEjVwSo0zpprm4-20" value="" style="edgeStyle=orthogonalEdgeStyle;html=1;endArrow=block;elbow=vertical;startArrow=none;endFill=1;strokeColor=#545B64;rounded=0;" edge="1" parent="1">
          <mxGeometry width="100" relative="1" as="geometry">
            <mxPoint x="319.5" y="403.5" as="sourcePoint" />
            <mxPoint x="405.5" y="404" as="targetPoint" />
            <Array as="points">
              <mxPoint x="329.5" y="403.5" />
              <mxPoint x="329.5" y="403.5" />
            </Array>
          </mxGeometry>
        </mxCell>
        <mxCell id="DaRkGXLEjVwSo0zpprm4-21" value="" style="edgeStyle=orthogonalEdgeStyle;html=1;endArrow=block;elbow=vertical;startArrow=none;endFill=1;strokeColor=#545B64;rounded=0;" edge="1" parent="1">
          <mxGeometry width="100" relative="1" as="geometry">
            <mxPoint x="510" y="403.5" as="sourcePoint" />
            <mxPoint x="596" y="404" as="targetPoint" />
            <Array as="points">
              <mxPoint x="520" y="403.5" />
              <mxPoint x="520" y="403.5" />
            </Array>
          </mxGeometry>
        </mxCell>
        <mxCell id="DaRkGXLEjVwSo0zpprm4-22" value="" style="edgeStyle=orthogonalEdgeStyle;html=1;endArrow=block;elbow=vertical;startArrow=none;endFill=1;strokeColor=#545B64;rounded=0;" edge="1" parent="1">
          <mxGeometry width="100" relative="1" as="geometry">
            <mxPoint x="280" y="360" as="sourcePoint" />
            <mxPoint x="400" y="240" as="targetPoint" />
            <Array as="points">
              <mxPoint x="280" y="240" />
              <mxPoint x="380" y="240" />
            </Array>
          </mxGeometry>
        </mxCell>
        <mxCell id="DaRkGXLEjVwSo0zpprm4-23" value="" style="edgeStyle=orthogonalEdgeStyle;html=1;endArrow=block;elbow=vertical;startArrow=none;endFill=1;strokeColor=#545B64;rounded=0;" edge="1" parent="1">
          <mxGeometry width="100" relative="1" as="geometry">
            <mxPoint x="510" y="240" as="sourcePoint" />
            <mxPoint x="640" y="370" as="targetPoint" />
            <Array as="points">
              <mxPoint x="540" y="240" />
              <mxPoint x="640" y="240" />
            </Array>
          </mxGeometry>
        </mxCell>
        <mxCell id="DaRkGXLEjVwSo0zpprm4-24" value="&lt;h1 style=&quot;margin-top: 0px;&quot;&gt;Step 1&lt;/h1&gt;&lt;div&gt;Data is stored into the bucket as a CSV file.&lt;/div&gt;" style="text;html=1;whiteSpace=wrap;overflow=hidden;rounded=0;" vertex="1" parent="1">
          <mxGeometry x="19.5" y="510" width="120.5" height="120" as="geometry" />
        </mxCell>
        <mxCell id="DaRkGXLEjVwSo0zpprm4-25" value="&lt;h1 style=&quot;margin-top: 0px;&quot;&gt;Step 2&lt;/h1&gt;&lt;div&gt;Data is transformed into a appropriate form so that it can be uploaded to a database.&lt;/div&gt;" style="text;html=1;whiteSpace=wrap;overflow=hidden;rounded=0;" vertex="1" parent="1">
          <mxGeometry x="210" y="510" width="110" height="120" as="geometry" />
        </mxCell>
        <mxCell id="DaRkGXLEjVwSo0zpprm4-26" value="&lt;h1 style=&quot;margin-top: 0px;&quot;&gt;Step 3&lt;/h1&gt;&lt;div&gt;The transformed data is stored into a redshift database.&lt;/div&gt;" style="text;html=1;whiteSpace=wrap;overflow=hidden;rounded=0;" vertex="1" parent="1">
          <mxGeometry x="390" y="520" width="110" height="120" as="geometry" />
        </mxCell>
        <mxCell id="DaRkGXLEjVwSo0zpprm4-27" value="&lt;h1 style=&quot;margin-top: 0px;&quot;&gt;Step 4&lt;/h1&gt;&lt;div&gt;The data can now be visualised by Grafana to create graphs.&lt;/div&gt;" style="text;html=1;whiteSpace=wrap;overflow=hidden;rounded=0;" vertex="1" parent="1">
          <mxGeometry x="710" y="365" width="110" height="120" as="geometry" />
        </mxCell>
        <mxCell id="DaRkGXLEjVwSo0zpprm4-28" value="The ETL Process" style="text;strokeColor=none;fillColor=none;html=1;fontSize=24;fontStyle=1;verticalAlign=middle;align=center;" vertex="1" parent="1">
          <mxGeometry x="364" y="50" width="100" height="40" as="geometry" />
        </mxCell>
      </root>
    </mxGraphModel>
  </diagram>
</mxfile>
